
	<svg xmlns="http://www.w3.org/2000/svg" xmlns:xlink="http://www.w3.org/1999/xlink" version="1.1" width="128" height="128" viewBox="0 0 100 100">


		<defs>
			<linearGradient id="Gradient_2" gradientUnits="userSpaceOnUse" x1="50" y1="62" x2="50" y2="0" spreadMethod="pad">
			<stop offset="0%" stop-color="#FFFFFF" stop-opacity="0.2"/>
			<stop offset="100%" stop-color="#FFFFFF" stop-opacity="0.7"/>
		</linearGradient><linearGradient id="Gradient_3" gradientUnits="userSpaceOnUse" x1="60" y1="100" x2="60" y2="0" spreadMethod="pad">
			<stop offset="0%" stop-color="#FFFFFF" stop-opacity="0"/>
			<stop offset="100%" stop-color="#FFFFFF" stop-opacity="0.4"/>
		</linearGradient><linearGradient id="Gradient_4" gradientUnits="userSpaceOnUse" x1="40" y1="100" x2="40" y2="0" spreadMethod="pad">
			<stop offset="0%" stop-color="#FFFFFF" stop-opacity="0"/>
			<stop offset="100%" stop-color="#FFFFFF" stop-opacity="0.4"/>
		</linearGradient><g id="background">
			<path fill="url(#background-gradient)" stroke="none" d=" M 100 13.35 Q 100 7.85 96.1 3.95 92.2 0 86.65 0 L 13.3 0 Q 7.8 0 3.9 3.95 0 7.85 0 13.35 L 0 86.7 Q 0 92.2 3.9 96.15 7.8 100 13.3 100 L 86.65 100 Q 92.2 100 96.1 96.15 100 92.2 100 86.7 L 100 13.35 Z"/>
		</g><mask id="mask">
			<path fill="#FFFFFF" stroke="none" d=" M 100 13.35 Q 100 7.85 96.1 3.95 92.2 0 86.65 0 L 13.3 0 Q 7.8 0 3.9 3.95 0 7.85 0 13.35 L 0 86.7 Q 0 92.2 3.9 96.15 7.8 100 13.3 100 L 86.65 100 Q 92.2 100 96.1 96.15 100 92.2 100 86.7 L 100 13.35 Z"/>
		</mask><g id="gloss-top">
			<path fill="url(#Gradient_2)" stroke="none" d=" M 100 42.9 L 100 13.35 Q 100 7.8 96.15 3.9 92.25 0 86.7 0 L 13.35 0 Q 7.85 0 3.9 3.9 0 7.8 0 13.35 L 0 42.9 Q 10.3 51.8 22.9 56.65 35.95 61.65 50 61.65 64.05 61.65 77.1 56.65 89.75 51.8 100 42.9 Z"/>
		</g><g id="gloss-right">
			<path fill="url(#Gradient_3)" stroke="none" d=" M 96.1 3.9 Q 92.2 0 86.7 0 L 20.85 0 75.8 100 86.7 100 Q 92.2 100 96.1 96.1 100 92.2 100 86.65 L 100 13.35 Q 100 7.8 96.1 3.9 Z"/>
		</g><g id="gloss-left">
			<path fill="url(#Gradient_4)" stroke="none" d=" M 3.9 3.95 Q 0 7.85 0 13.35 L 0 86.7 Q 0 92.2 3.9 96.15 7.8 100 13.3 100 L 24.2 100 79.15 0 13.3 0 Q 7.8 0 3.9 3.95 Z"/>
		</g>
			
	<linearGradient id="background-gradient" x1="0" y1="0" y2="1" x2="0" >
		<stop stop-color="#6FDBFD" offset="0%"/>
		<stop stop-color="#1A99FC" offset="100%"/>
	</linearGradient>

			
			
	<filter id="drop-shadow">
		<feGaussianBlur in="SourceAlpha" stdDeviation="0" />
		<feComponentTransfer>
			<feFuncA type="linear" slope="0.9"/>
		</feComponentTransfer>
		<feOffset dx="-0.9999999999999999" dy="1" result="offsetblur" />
		<feFlood flood-color="#000" />
		<feComposite in2="offsetblur" operator="in" />
		<feMerge>
			<feMergeNode />
			<feMergeNode in="SourceGraphic" />
		</feMerge>
	</filter>

			<g transform="scale(3.4482758620689653) translate(-0.5 -0.5)" id="picture"><path d="M17.5 15a2.5 2.5 0 1 1-5 0 2.5 2.5 0 1 1 5 0z M24 .5H6C3 .5.5 3 .5 6v18c0 3 2.5 5.5 5.5 5.5h18c3 0 5.5-2.5 5.5-5.5V6C29.5 3 27 .5 24 .5zM23.2 15v.7l1.9 1.5c.4.3.5.9.2 1.3l-2 3.5c-.2.3-.5.5-.9.5-.1 0-.2 0-.4-.1l-2.3-.9c-.4.3-.9.5-1.4.8l-.3 2.4c-.1.5-.5.9-1 .9h-4.1c-.5 0-.9-.4-1-.8l-.3-2.4c-.5-.2-.9-.5-1.4-.8l-2.3.9c-.5.2-1 0-1.2-.4l-2.1-3.5c-.3-.4-.2-1 .2-1.3l2-1.5v-1.5l-1.9-1.5c-.4-.3-.5-.9-.2-1.3l2-3.5c.3-.4.8-.6 1.2-.4l2.3.9c.4-.3.9-.5 1.4-.8l.3-2.4c.1-.5.5-.9 1-.9H17c.5 0 .9.4 1 .8l.3 2.4c.5.2.9.5 1.4.8l2.3-.9c.5-.2 1 0 1.2.4l2.1 3.5c.3.4.2 1-.2 1.3l-2 1.5c.1.3.1.6.1.8z"/></g>
			
	<linearGradient id="picture-gradient" x1="0" y1="0" y2="1" x2="0" >
		<stop stop-color="#ffffff" offset="0%"/>
		<stop stop-color="#e5eff9" offset="100%"/>
	</linearGradient>

		</defs>

		

			<use xlink:href="#background" fill="url(#background-gradient)" />

		

			<g mask="url(#mask)">
				<g transform="
				        translate(
                                50 50
)
                            translate(0 0)  scale(0.7750000000000002)  
                            translate(
                                -50 -50
)">
					<g filter="url(#drop-shadow)">
						<use xlink:href="#picture" fill="url(#picture-gradient)"  />
					</g>
				</g>
			</g>

		

			<use xlink:href="#gloss-top" opacity="1" />


	</svg>
